<?xml version="1.0" encoding="iso-8859-1"?>
<!-- Generator: Adobe Illustrator 19.0.0, SVG Export Plug-In . SVG Version: 6.00 Build 0)  -->
<svg version="1.1" id="Layer_1" xmlns="http://www.w3.org/2000/svg" xmlns:xlink="http://www.w3.org/1999/xlink" x="0px" y="0px"
	 viewBox="0 0 511.995 511.995" style="enable-background:new 0 0 511.995 511.995;" xml:space="preserve">
<g>
	<g>
		<g>
			<path d="M300.733,134.204h20.303v15.803c1.559-0.1,3.131-0.161,4.708-0.161c39.959,0,72.916,30.579,76.672,69.578
				c1.915-0.1,3.82-0.146,5.714-0.146c6.344,0,12.564,0.527,18.642,1.487v-86.561h20.303c3.41,0,6.651-2.022,8.028-5.361
				c1.388-3.348,0.527-7.058-1.887-9.472l-73.16-73.172c-1.569-1.569-3.758-2.55-6.152-2.55s-4.572,0.98-6.149,2.55l-73.175,73.172
				c-2.404,2.414-3.267,6.124-1.879,9.472C294.093,132.182,297.321,134.204,300.733,134.204z"/>
			<path d="M408.131,233.166c-6.769,0-13.381,0.671-19.786,1.907c0.346-2.685,0.545-5.417,0.545-8.192
				c0-34.872-28.278-63.148-63.148-63.148c-12.764,0-24.62,3.791-34.545,10.296c-16.174-45.23-59.392-77.599-110.185-77.599
				c-64.607,0-116.997,52.378-116.997,116.997c0,4.608,0.299,9.152,0.827,13.635c-21.809,1.933-38.917,20.229-38.917,42.547
				c0,9.997,3.438,19.167,9.19,26.453C13.942,310.255,0,334.396,0,361.801c0,43.686,35.415,79.101,79.104,79.101h88.266
				l-38.464-38.461c-6.477-6.467-8.399-16.131-4.89-24.602c3.502-8.463,11.694-13.932,20.854-13.932h6.413v-83.169
				c0-6.024,2.35-11.692,6.612-15.954c4.273-4.275,9.933-6.623,15.967-6.623h88.356c6.031,0,11.702,2.347,15.967,6.623
				c4.262,4.252,6.612,9.933,6.612,15.954v83.169h6.413c9.162,0,17.354,5.471,20.856,13.942c3.51,8.456,1.587,18.115-4.89,24.591
				l-38.464,38.461h139.412c57.359,0,103.869-46.5,103.869-103.867C512,279.666,465.49,233.166,408.131,233.166z"/>
			<path d="M299.246,383.156c-1.38-3.341-4.618-5.363-8.031-5.363h-20.293v-97.057c0-2.222-0.863-4.444-2.557-6.139
				c-1.687-1.697-3.909-2.55-6.141-2.55h-88.356c-2.222,0-4.444,0.852-6.141,2.55c-1.708,1.695-2.55,3.917-2.55,6.139v97.057
				h-20.303c-3.41,0-6.641,2.022-8.028,5.363c-1.38,3.348-0.527,7.058,1.887,9.469l73.172,73.17c1.569,1.569,3.748,2.55,6.141,2.55
				c2.404,0,4.572-0.98,6.149-2.55l73.172-73.17C299.781,390.214,300.634,386.505,299.246,383.156z"/>
		</g>
	</g>
</g>
<g>
</g>
<g>
</g>
<g>
</g>
<g>
</g>
<g>
</g>
<g>
</g>
<g>
</g>
<g>
</g>
<g>
</g>
<g>
</g>
<g>
</g>
<g>
</g>
<g>
</g>
<g>
</g>
<g>
</g>
</svg>
